Coordinates
version=1
nRows=11
nColumns=40
inDegrees=yes

Units are S.I. units (second, meters, Newtons, ...)
Angles are in degrees.

endheader
time	pelvis_tilt	pelvis_list	pelvis_rotation	pelvis_tx	pelvis_ty	pelvis_tz	hip_flexion_r	hip_adduction_r	hip_rotation_r	knee_angle_r	knee_angle_r_beta	ankle_angle_r	subtalar_angle_r	mtp_angle_r	hip_flexion_l	hip_adduction_l	hip_rotation_l	knee_angle_l	knee_angle_l_beta	ankle_angle_l	subtalar_angle_l	mtp_angle_l	lumbar_extension	lumbar_bending	lumbar_rotation	arm_flex_r	arm_add_r	arm_rot_r	elbow_flex_r	pro_sup_r	wrist_flex_r	wrist_dev_r	arm_flex_l	arm_add_l	arm_rot_l	elbow_flex_l	pro_sup_l	wrist_flex_l	wrist_dev_l
     20.44342857	     -2.61442881	     -5.75498345	      3.38190735	      1.03891751	      0.90546216	      0.55773978	     18.33365863	      8.14276172	     -6.67739346	     32.50924202	     32.50924202	     18.20726509	    -15.71143005	      0.75640444	     30.63089074	    -14.20069980	      7.10255331	     66.98048516	     66.98048516	     11.86827636	    -19.54706656	     21.33010558	    -12.40483158	      5.08597339	     -1.37409754	     19.46297488	    -15.14165788	     -6.12929914	     37.94426908	     46.07157941	      0.00000000	      0.00000000	      7.44319443	     -9.37870480	     -0.21791167	     24.89050235	     46.37865399	      0.00000000	      0.00000000
     20.46685714	     -2.44405657	     -5.69404629	      4.42163657	      1.03749956	      0.90514071	      0.55828689	     18.01508070	      8.06951052	     -7.18975686	     32.59631061	     32.59631061	     18.48978943	    -16.20797773	      0.84025190	     31.87654133	    -13.85793619	      7.24767540	     66.19450980	     66.19450980	     12.55077032	    -19.60051983	     21.39641900	    -12.54526611	      4.81732231	     -0.13697749	     22.02582343	    -16.30881142	     -6.39896119	     39.14053189	     46.05848825	      0.00000000	      0.00000000	      4.86570920	     -8.64823598	     -0.11229291	     23.84256510	     46.31084057	      0.00000000	      0.00000000
     20.49028571	     -2.44057972	     -5.68359681	      5.59280130	      1.03584823	      0.90514601	      0.55837174	     17.77083741	      8.01003546	     -7.81252790	     32.44296254	     32.44296254	     18.77476552	    -16.78001565	      1.38342747	     33.18246663	    -13.35006979	      7.46411923	     64.68495334	     64.68495334	     13.61244273	    -19.60713521	     22.26773557	    -12.56406719	      4.76457501	     -1.05378409	     25.35704815	    -15.79382383	     -6.63699212	     42.56296465	     45.95659714	      0.00000000	      0.00000000	      1.51280828	     -8.53255463	      0.26893927	     22.01087590	     46.17134252	      0.00000000	      0.00000000
     20.51371429	     -2.59631685	     -5.52079985	      6.71874356	      1.03405586	      0.90575770	      0.55797492	     17.52353827	      7.70791513	     -8.51857331	     32.02381565	     32.02381565	     19.09971020	    -16.89795663	      2.18218391	     34.28148255	    -12.53060020	      7.51588361	     62.29099225	     62.29099225	     14.51397178	    -19.60625292	     22.93675399	    -12.47717965	      4.52071776	     -0.75386307	     27.65413378	    -16.38339970	     -6.82742158	     46.37961350	     45.83006738	      0.00000000	      0.00000000	     -1.51801163	     -8.34859716	      0.86829404	     21.57751098	     45.95903895	      0.00000000	      0.00000000
     20.53714286	     -2.75393058	     -5.31947606	      7.77798061	      1.03224511	      0.90704376	      0.55727438	     17.09253767	      7.35741075	     -9.23037833	     31.29968687	     31.29968687	     19.29716623	    -16.82983700	      2.90720950	     34.94817929	    -11.64239052	      7.39978080	     59.00724216	     59.00724216	     14.67667570	    -19.57045829	     22.11181343	    -12.49371517	      4.26510627	      0.07236642	     29.30648961	    -17.55350178	     -6.91810508	     51.28010644	     45.65449071	      0.00000000	      0.00000000	     -4.55184542	     -8.50299878	      2.70859296	     22.66069332	     45.45140607	      0.00000000	      0.00000000
     20.56057143	     -2.98141163	     -5.07910298	      8.82787496	      1.03038195	      0.90874780	      0.55617937	     16.56551995	      6.92889961	    -10.02248943	     30.27512870	     30.27512870	     19.20234095	    -16.66776951	      3.07195476	     35.36451227	    -10.54112641	      7.42602281	     55.12979673	     55.12979673	     14.53064945	    -19.50100634	     21.73127574	    -12.35172864	      3.99211044	      0.22401627	     32.23683614	    -17.87573973	     -7.20548167	     53.44592958	     45.60435953	      0.00000000	      0.00000000	     -7.10363961	     -8.44031887	      3.16990327	     21.99505114	     45.30255408	      0.00000000	      0.00000000
     20.58400000	     -3.39197048	     -4.87540503	      9.86208713	      1.02845775	      0.91026215	      0.55482750	     16.21127435	      6.47070905	    -10.93814457	     29.19861584	     29.19861584	     18.86769881	    -16.47819476	      2.54322251	     35.64002211	     -9.47291654	      7.42356228	     50.66132580	     50.66132580	     12.82249675	    -19.37027193	     18.39308964	    -12.08404382	      3.76137849	      0.43886987	     34.45380463	    -18.43566351	     -7.36353817	     57.49678769	     45.47888731	      0.00000000	      0.00000000	    -10.30743408	     -8.79619037	      4.85550739	     23.90388678	     44.85107813	      0.00000000	      0.00000000
     20.60742857	     -3.71933596	     -4.59322614	     10.78439710	      1.02664150	      0.91221016	      0.55322283	     15.65347945	      5.98924077	    -11.67302687	     28.00123851	     28.00123851	     18.67643588	    -16.18546291	      2.68921708	     35.57937333	     -8.24385840	      7.66260369	     46.09645071	     46.09645071	     11.76288256	    -19.10742125	     18.45078854	    -11.86731180	      3.45194886	      0.91570487	     37.20999615	    -19.00984648	     -7.59107787	     59.23822778	     45.44196460	      0.00000000	      0.00000000	    -12.28010239	     -8.80538962	      5.21347511	     23.60601309	     44.74461362	      0.00000000	      0.00000000
     20.63085714	     -3.95962116	     -4.44299453	     11.66758256	      1.02516737	      0.91386026	      0.55155273	     14.96916814	      5.61965595	    -12.68276195	     26.73612494	     26.73612494	     18.11133188	    -15.70174282	      1.33715651	     35.07057066	     -7.44246619	      7.61765626	     41.04429645	     41.04429645	      8.13447000	    -18.69759603	     12.07542334	    -11.82212220	      3.31047248	      1.15009493	     39.19214461	    -19.56401609	     -7.36999919	     63.82488982	     45.29462986	      0.00000000	      0.00000000	    -15.52124698	     -9.56866522	      8.23419555	     26.98782139	     44.11853372	      0.00000000	      0.00000000
     20.65428571	     -4.24653902	     -4.25187047	     12.44283285	      1.02385299	      0.91543080	      0.54971808	     14.36309124	      5.26383396	    -13.42043850	     25.59582168	     25.59582168	     17.96594335	    -15.28866936	      1.40220956	     34.69571587	     -6.54971296	      7.80416734	     36.71179931	     36.71179931	      6.79798296	    -17.51279142	     12.37005775	    -11.58044790	      3.10387182	      1.38147793	     41.87645777	    -19.63391314	     -7.45702044	     65.69255878	     45.24910335	      0.00000000	      0.00000000	    -17.25084343	     -9.55135985	      8.83393031	     26.80188472	     44.00046339	      0.00000000	      0.00000000
     20.67771429	     -4.47115480	     -4.13065848	     13.16917503	      1.02280124	      0.91669301	      0.54782693	     13.71927254	      4.98136343	    -14.26347899	     24.53788210	     24.53788210	     17.85969081	    -14.70776431	      1.24334697	     34.26228162	     -5.97034618	      7.64397952	     32.78941828	     32.78941828	      5.40593613	    -15.46473143	     11.90548373	    -11.42907160	      2.93511256	      1.41174599	     44.35696612	    -19.48758032	     -7.33993879	     68.19708898	     45.17480113	      0.00000000	      0.00000000	    -19.02662416	     -9.52142875	      9.53108431	     27.23351985	     43.86447140	      0.00000000	      0.00000000
